<?xml version="1.0" encoding="UTF-8"?> <svg xmlns="http://www.w3.org/2000/svg" xmlns:xlink="http://www.w3.org/1999/xlink" version="1.1" id="Layer_1" x="0px" y="0px" viewBox="-2474 2476 50 50" style="enable-background:new -2474 2476 50 50;" xml:space="preserve"> <style type="text/css"> .st0{fill:#FFFFFF;} .st1{fill:#EFEEEE;} .st2{fill:#1C1B1B;} </style> <g> <circle class="st0" cx="-2449" cy="2501" r="25"></circle> <circle class="st1" cx="-2449" cy="2501" r="23.1"></circle> <g id="logo_1_"> <g> <g> <g> <path class="st2" d="M-2441.3,2493.9c-1.8-1.8-4.3-2.9-6.9-2.9c-5.4,0-9.8,4.4-9.8,9.8c0,1.7,0.5,3.4,1.3,4.9l-1.4,5.1l5.2-1.4 c1.4,0.8,3,1.2,4.7,1.2h0c0,0,0,0,0,0c5.4,0,9.8-4.4,9.8-9.8C-2438.4,2498.2-2439.4,2495.7-2441.3,2493.9z M-2448.2,2508.9 L-2448.2,2508.9c-1.5,0-2.9-0.4-4.1-1.1l-0.3-0.2l-3.1,0.8l0.8-3l-0.2-0.3c-0.8-1.3-1.2-2.8-1.2-4.3c0-4.5,3.7-8.1,8.1-8.1 c2.2,0,4.2,0.8,5.8,2.4s2.4,3.6,2.4,5.8C-2440,2505.3-2443.7,2508.9-2448.2,2508.9z M-2443.7,2502.9c-0.2-0.1-1.4-0.7-1.7-0.8 s-0.4-0.1-0.6,0.1c-0.2,0.2-0.6,0.8-0.8,1c-0.1,0.2-0.3,0.2-0.5,0.1c-0.2-0.1-1-0.4-2-1.2c-0.7-0.6-1.2-1.4-1.4-1.7 c-0.1-0.2,0-0.4,0.1-0.5c0.1-0.1,0.2-0.3,0.4-0.4c0.1-0.1,0.2-0.2,0.2-0.4c0.1-0.2,0-0.3,0-0.4c-0.1-0.1-0.6-1.3-0.8-1.8 c-0.2-0.5-0.4-0.4-0.6-0.4c-0.1,0-0.3,0-0.5,0c-0.2,0-0.4,0.1-0.7,0.3c-0.2,0.2-0.9,0.8-0.9,2s0.9,2.4,1,2.5 c0.1,0.2,1.7,2.6,4.2,3.7c0.6,0.3,1,0.4,1.4,0.5c0.6,0.2,1.1,0.2,1.5,0.1c0.5-0.1,1.4-0.6,1.7-1.2c0.2-0.6,0.2-1.1,0.1-1.2 C-2443.3,2503-2443.5,2503-2443.7,2502.9z"></path> </g> </g> </g> </g> </g> </svg> 